<?xml version="1.0" encoding="UTF-8" standalone="no"?>
<!DOCTYPE svg PUBLIC "-//W3C//DTD SVG 1.1//EN" "http://www.w3.org/Graphics/SVG/1.1/DTD/svg11.dtd">
<svg width="100%" height="100%" viewBox="0 0 1182 1182" version="1.1" xmlns="http://www.w3.org/2000/svg" xmlns:xlink="http://www.w3.org/1999/xlink" xml:space="preserve" xmlns:serif="http://www.serif.com/" style="fill-rule:evenodd;clip-rule:evenodd;stroke-linejoin:round;stroke-miterlimit:2;">
    <g transform="matrix(0.9672,0.860585,-0.860585,0.9672,672.563,-2303.39)">
        <g transform="matrix(1,0,0,1.17727,-4.24776,-339.727)">
            <path d="M1471.36,1900.01C1478.81,1902.96 1483.51,1907.27 1483.51,1912.05C1483.51,1920.94 1467.29,1928.16 1447.32,1928.16C1427.34,1928.16 1411.13,1920.94 1411.13,1912.05C1411.13,1907.43 1415.51,1903.25 1422.53,1900.31C1423.35,1909.81 1433.97,1917.33 1446.93,1917.33C1460.04,1917.33 1470.75,1909.65 1471.36,1900.01Z" style="fill:rgb(243,175,27);"/>
        </g>
        <g transform="matrix(1.10021,0,0,15.0958,-140.986,-26628.9)">
            <rect x="1406.88" y="1870.1" width="11.14" height="20.557" style="fill:rgb(243,175,27);"/>
        </g>
        <g transform="matrix(1.10021,0,0,15.0958,-80.8654,-26628.9)">
            <rect x="1406.88" y="1870.1" width="11.14" height="20.557" style="fill:rgb(243,175,27);"/>
        </g>
        <g transform="matrix(1.06977,0,0,1.00735,-101.268,-13.1133)">
            <path d="M1454.98,2070.8L1432.26,2070.8L1435.75,1927.11L1451.52,1927.11L1454.98,2070.8Z" style="fill:rgb(243,175,27);"/>
        </g>
        <g transform="matrix(0.916695,0,0,0.916695,119.404,184.131)">
            <ellipse cx="1443.09" cy="2072.92" rx="22.453" ry="23.245" style="fill:rgb(243,175,27);"/>
        </g>
    </g>
    <g transform="matrix(0.965575,-0.862407,0.862407,0.965575,-2298.56,174.351)">
        <g transform="matrix(1,0,0,1.17727,-4.24776,-339.727)">
            <path d="M1471.36,1900.01C1478.81,1902.96 1483.51,1907.27 1483.51,1912.05C1483.51,1920.94 1467.29,1928.16 1447.32,1928.16C1427.34,1928.16 1411.13,1920.94 1411.13,1912.05C1411.13,1907.43 1415.51,1903.25 1422.53,1900.31C1423.35,1909.81 1433.97,1917.33 1446.93,1917.33C1460.04,1917.33 1470.75,1909.65 1471.36,1900.01Z" style="fill:rgb(243,175,27);"/>
        </g>
        <g transform="matrix(1.10021,0,0,15.0958,-140.986,-26628.9)">
            <rect x="1406.88" y="1870.1" width="11.14" height="20.557" style="fill:rgb(243,175,27);"/>
        </g>
        <g transform="matrix(1.10021,0,0,15.0958,-80.8654,-26628.9)">
            <rect x="1406.88" y="1870.1" width="11.14" height="20.557" style="fill:rgb(243,175,27);"/>
        </g>
        <g transform="matrix(1.06977,0,0,1.00735,-101.268,-13.1133)">
            <path d="M1454.98,2070.8L1432.26,2070.8L1435.75,1927.11L1451.52,1927.11L1454.98,2070.8Z" style="fill:rgb(243,175,27);"/>
        </g>
        <g transform="matrix(0.916695,0,0,0.916695,119.404,184.131)">
            <ellipse cx="1443.09" cy="2072.92" rx="22.453" ry="23.245" style="fill:rgb(243,175,27);"/>
        </g>
    </g>
    <g transform="matrix(1.8321,0,0,1.8321,-3934.86,-2199.01)">
        <path d="M2199.07,1462.65L2229.04,1573.22L2169.1,1573.22L2199.07,1462.65Z" style="fill:rgb(0,20,140);"/>
        <rect x="2307.73" y="1453.02" width="318.669" height="49.249" style="fill:rgb(0,20,140);"/>
        <g transform="matrix(1,0,0,0.532498,0,743.203)">
            <ellipse cx="2199.07" cy="1558.72" rx="29.97" ry="25.101" style="fill:rgb(0,20,140);"/>
        </g>
        <g transform="matrix(1,0,0,1,-0.528297,12.1508)">
            <circle cx="2199.43" cy="1462.65" r="12.151" style="fill:rgb(0,20,140);"/>
        </g>
        <rect x="2192.77" y="1403.38" width="12.256" height="113.69" style="fill:rgb(0,20,140);"/>
        <g transform="matrix(1,0,0,1,0,27.4714)">
            <ellipse cx="2467.06" cy="1474.8" rx="159.334" ry="27.471" style="fill:rgb(0,20,140);"/>
        </g>
        <g transform="matrix(2.28902,0,0,1.54714,-2178.65,-774.454)">
            <path d="M2021.42,1307.71C2026.32,1304.03 2034.54,1304.17 2039.42,1307.85C2058.79,1322.46 2133.3,1378.78 2156.8,1396.55C2161.31,1399.96 2161.37,1401.96 2156.73,1401.97C2118.64,1402.11 1941.31,1402.71 1902.51,1401.95C1900.79,1401.91 1898.35,1400.05 1902.7,1396.79C1926.06,1379.27 2001.98,1322.32 2021.42,1307.71Z" style="fill:rgb(0,26,178);"/>
        </g>
        <g transform="matrix(2.28902,0,0,-1.54714,-2178.65,3559.34)">
            <path d="M2021.42,1307.71C2026.32,1304.03 2034.54,1304.17 2039.42,1307.85C2058.79,1322.46 2133.3,1378.78 2156.8,1396.55C2161.31,1399.96 2161.37,1401.96 2156.73,1401.97C2118.64,1402.11 1941.31,1402.71 1902.51,1401.95C1900.79,1401.91 1898.35,1400.05 1902.7,1396.79C1926.06,1379.27 2001.98,1322.32 2021.42,1307.71Z" style="fill:rgb(0,26,178);"/>
        </g>
    </g>
</svg>
